<svg viewBox="0 0 75.0116 63.4229" xmlns="http://www.w3.org/2000/svg" xmlns:xlink="http://www.w3.org/1999/xlink" width="75.011597" height="63.422852" fill="none" customFrame="#000000">
	<path id="Vector" d="M56.0998 0.16452C52.5031 1.70166 49.201 3.85836 46.3043 6.48388C45.7584 6.97954 45.7617 7.97748 46.3043 8.47648C46.8903 9.0123 47.7142 9.0056 48.2969 8.47648C48.6385 8.16504 48.9834 7.86362 49.3383 7.5656C49.5225 7.40818 49.7101 7.25748 49.901 7.10342C49.9947 7.0264 50.0919 6.95272 50.1856 6.87569C50.2142 6.85188 50.292 6.79242 50.2922 6.79272C50.2924 6.79284 50.2797 6.80276 50.2459 6.82882C50.9961 6.2528 51.773 5.71364 52.57 5.2046C54.144 4.19994 55.8017 3.32924 57.5197 2.59582C58.1995 2.30446 58.4004 1.25291 58.0254 0.670197C57.5699 -0.0363998 56.8265 -0.146919 56.0998 0.16452ZM27.9758 12.2339C27.7781 12.2878 27.5777 12.323 27.3746 12.3586C27.3475 12.3617 27.3204 12.3648 27.2926 12.3679C27.1553 12.3813 27.0146 12.3947 26.8773 12.4047C26.2444 12.455 25.6115 12.475 24.9785 12.5018C23.2404 12.5755 21.5091 12.7028 19.7877 12.9808C15.0692 13.7443 10.7491 15.9077 7.21934 19.1192C4.35603 21.7247 2.06206 24.9296 0.179977 28.2952C-0.178322 28.9382 0.00247955 29.8625 0.685654 30.2208C1.36882 30.5791 2.2295 30.4017 2.61126 29.7151C3.50542 28.1177 4.48334 26.5672 5.58176 25.1004C5.60075 25.0741 5.67456 24.9777 5.7384 24.8943C5.79294 24.8231 5.84018 24.7613 5.83974 24.761C5.8395 24.7608 5.82676 24.7767 5.79606 24.8157C5.92667 24.6483 6.06064 24.4808 6.19458 24.3167C6.45582 23.9952 6.72036 23.6804 6.99498 23.3724C7.48392 22.8164 7.99296 22.2739 8.52541 21.7582C9.02106 21.2759 9.53342 20.8104 10.0659 20.3684C10.1999 20.2579 10.3338 20.1474 10.4711 20.0368C10.5093 20.0066 10.5744 19.9566 10.6242 19.9184C10.6636 19.8882 10.6935 19.8652 10.6933 19.8649C10.6931 19.8646 10.6652 19.8851 10.5917 19.9398C10.8596 19.7388 11.1275 19.5379 11.4021 19.347C12.3833 18.6605 13.4215 18.0509 14.4998 17.5285C14.7477 17.408 14.9988 17.2941 15.2533 17.1836C15.2714 17.1752 15.2907 17.1676 15.3103 17.1601C15.2218 17.1962 15.1206 17.2771 15.392 17.127C15.5212 17.0745 15.649 17.0224 15.7791 16.9726C16.2613 16.7851 16.7503 16.6176 17.2426 16.4636C18.1602 16.1789 19.0979 15.9545 20.0456 15.7838C20.2566 15.7469 20.4676 15.7101 20.6786 15.6766C20.7924 15.6598 20.9096 15.6397 21.0235 15.623C21.0557 15.6184 21.0863 15.6138 21.1176 15.6092C21.5272 15.5586 21.9367 15.5141 22.3463 15.4756C23.1132 15.4087 23.8834 15.3652 24.6503 15.3317C25.9932 15.2714 27.4199 15.3049 28.7259 14.9499C29.4359 14.7556 29.9449 13.9385 29.7105 13.2185C29.4761 12.4985 28.7393 12.0263 27.9791 12.2339L27.9758 12.2339ZM15.392 17.127L15.3849 17.1299C15.3918 17.1267 15.3984 17.1234 15.4049 17.1199L15.392 17.127ZM22.9993 52.5177C26.2377 56.811 30.5578 60.103 35.5644 62.0688C38.1196 63.0734 41.6258 64.2723 44.1375 62.5611C45.4604 61.6602 46.388 60.1833 46.1167 58.5424C45.9995 57.8425 45.5943 57.1392 45.0451 56.6904C44.7805 56.4728 44.4925 56.2919 44.2112 56.1011C44.3313 56.1817 44.3276 56.1789 44.2834 56.145C44.2449 56.1155 44.176 56.0627 44.1309 56.0207C44.0337 55.9302 43.9266 55.8265 43.8328 55.7227C43.7763 55.6616 43.7228 55.599 43.6693 55.535C43.6695 55.5348 43.6632 55.5261 43.6528 55.5122C43.6314 55.4834 43.5931 55.4317 43.5615 55.3844C43.4142 55.1634 43.287 54.9289 43.1697 54.6912C43.1569 54.6654 43.1463 54.6448 43.1378 54.6284C43.1344 54.6175 43.1295 54.6029 43.1228 54.584C43.0826 54.4668 43.0391 54.3496 43.0023 54.229C42.9252 53.9711 42.8717 53.7099 42.8248 53.4487C42.8536 53.604 42.8533 53.6016 42.8459 53.5449C42.8395 53.4964 42.8279 53.4082 42.8248 53.3449C42.8147 53.221 42.8114 53.0971 42.8114 52.9732C42.8114 52.8493 42.8147 52.7254 42.8248 52.6015C42.8279 52.5509 42.8341 52.5003 42.8376 52.4526L42.8382 52.4508C42.9118 52.2197 42.9386 51.9685 43.0156 51.7341C43.0269 51.7015 43.0555 51.6358 43.0789 51.582L43.0791 51.5816C43.118 51.4919 43.1421 51.4365 43.0458 51.6269C43.1094 51.4997 43.1663 51.3724 43.2367 51.2485C43.2969 51.1414 43.3673 51.0375 43.4343 50.9337C43.4521 50.908 43.4699 50.8822 43.4884 50.8565C43.5032 50.8401 43.5238 50.8172 43.5515 50.7864C43.7524 50.5653 43.96 50.351 44.1878 50.1568C44.2393 50.1107 44.2931 50.0667 44.3473 50.0232L44.4055 49.9826C44.5126 49.9089 44.6164 49.8353 44.7236 49.7649C44.9949 49.5875 45.2761 49.4234 45.5608 49.2693C46.6592 48.6732 47.8347 48.2178 48.9164 47.5848C50.0651 46.9083 51.1099 46.051 51.8634 44.9425C52.6872 43.7302 52.925 42.2333 52.6169 40.8134C52.3088 39.3934 51.4281 38.1677 50.5373 37.0492C50.1354 36.5435 49.7101 36.0579 49.3015 35.559C49.0872 35.3011 48.8796 35.0399 48.6719 34.7787C48.6116 34.705 48.5547 34.628 48.4944 34.5543C48.4944 34.5543 48.3538 34.3701 48.4275 34.4706C48.443 34.4917 48.449 34.5001 48.4488 34.5002C48.4483 34.5005 48.3634 34.3871 48.3638 34.3868C48.2902 34.2931 48.2198 34.196 48.1461 34.1022C46.4985 31.902 45.035 29.5644 43.7725 27.1197C43.4544 26.5036 43.1496 25.8807 42.8583 25.2511C42.7176 24.9463 42.5803 24.6416 42.4463 24.3368L42.2543 23.895C42.2729 23.9384 42.3017 24.008 42.2454 23.8814C42.1985 23.7709 42.155 23.6603 42.1081 23.5498C41.5924 22.2873 41.1269 21.008 40.7183 19.7053C40.5107 19.0456 40.3164 18.3791 40.1356 17.7094C39.9447 16.9994 39.1242 16.4937 38.4042 16.7248C37.6842 16.9559 37.2154 17.696 37.4197 18.4562C38.8228 23.6436 41.0532 28.6301 44.017 33.1176C44.7805 34.2763 45.601 35.3949 46.4516 36.49C46.8602 37.0157 47.2821 37.5348 47.7142 38.0472C47.905 38.2716 48.0926 38.4959 48.2801 38.7237C48.3806 38.8476 48.481 38.9715 48.5815 39.0987L48.5939 39.1144C48.6561 39.1957 48.7159 39.2792 48.7758 39.3599C49.1307 39.8489 49.4589 40.3646 49.7068 40.9172C49.6428 40.775 49.6753 40.861 49.7145 40.9647C49.7389 41.0294 49.766 41.1011 49.7737 41.1282C49.8206 41.2722 49.8608 41.4162 49.8909 41.5635C49.9026 41.6133 49.9109 41.7049 49.9155 41.7559L49.9156 41.7571C49.9186 41.7902 49.92 41.8054 49.9197 41.7793C49.9206 41.8101 49.9216 41.8409 49.9226 41.8717C49.9263 41.9865 49.93 42.1008 49.9278 42.2165C49.9278 42.2196 49.9275 42.2291 49.927 42.2417C49.925 42.2548 49.9223 42.2761 49.9194 42.2993C49.9142 42.3404 49.9082 42.3872 49.9044 42.4041C49.8809 42.5213 49.8507 42.6352 49.8172 42.749C49.797 42.8127 49.7717 42.8764 49.7501 42.9422C49.6829 43.072 49.6202 43.2014 49.546 43.325C49.4857 43.4255 49.4187 43.526 49.3484 43.6231C49.3082 43.67 49.2714 43.7169 49.2312 43.7604C49.0436 43.9747 48.8394 44.1757 48.6217 44.3632C48.6027 44.38 48.5575 44.4177 48.5132 44.4547C48.4522 44.5055 48.3928 44.5551 48.4047 44.5476C48.3095 44.6191 48.2138 44.6871 48.116 44.755C47.8749 44.9191 47.6271 45.0765 47.3726 45.2205C46.8568 45.5185 46.3177 45.7731 45.7785 46.0276C44.6198 46.5768 43.4945 47.1394 42.4799 47.9331C40.4805 49.497 39.6768 51.8948 40.1323 54.3663C40.3399 55.5016 40.8757 56.5498 41.5957 57.4439C41.9607 57.896 42.3961 58.2711 42.8717 58.606C42.9678 58.6733 43.067 58.7529 43.1751 58.8036C43.2199 58.8493 43.2673 58.8945 43.3103 58.9375C43.2239 58.8529 43.2295 58.8603 43.2609 58.9019C43.2775 58.9237 43.3012 58.9551 43.3224 58.9874C43.3182 58.9893 43.3333 59.0372 43.3504 59.0913L43.3508 59.0927C43.3605 59.1233 43.3707 59.1558 43.3784 59.183L43.3778 59.184C43.3614 59.1374 43.3383 59.0957 43.3639 59.2055L43.365 59.2097L43.3639 59.2122C43.3498 59.2451 43.2959 59.4122 43.2862 59.4596C43.2806 59.4709 43.2759 59.4798 43.2735 59.4834C43.2333 59.5537 43.1932 59.6207 43.1529 59.6911C43.1506 59.695 43.1425 59.7072 43.1327 59.722C43.1129 59.744 43.078 59.7855 43.0484 59.8206C43.0201 59.8541 42.9967 59.8819 42.9956 59.8819C42.9275 59.9554 42.8529 60.0223 42.7787 60.0897C42.8178 60.052 42.7671 60.09 42.7029 60.1381C42.6505 60.1773 42.5891 60.2232 42.5602 60.2403C42.4603 60.2997 42.3582 60.3569 42.2541 60.4066C42.2906 60.386 42.1718 60.4244 42.0691 60.4575L42.0682 60.4578C42.0189 60.4737 41.9734 60.4884 41.9507 60.4948C41.8536 60.5216 41.7531 60.5417 41.6526 60.5618C41.635 60.565 41.6207 60.5677 41.6093 60.5698C41.4486 60.5863 41.283 60.5919 41.1202 60.5919C40.9661 60.5919 40.8154 60.5886 40.6614 60.5785C40.5576 60.5718 40.4571 60.5618 40.3533 60.5517C40.3446 60.5508 40.3368 60.55 40.3297 60.5493C40.3165 60.5467 40.2971 60.5431 40.2695 60.5383C39.5897 60.4245 38.92 60.2436 38.2602 60.0427C37.6876 59.8685 37.1216 59.6743 36.5623 59.46C36.4183 59.4031 36.2743 59.3495 36.127 59.2892C36.0778 59.2685 35.8381 59.1696 35.8376 59.1708C35.8374 59.1712 35.8578 59.1801 35.9093 59.2021C35.6247 59.0816 35.34 58.9543 35.0587 58.8203C33.9335 58.2912 32.8451 57.6884 31.8036 57.0086C30.6716 56.2752 30.0086 55.7729 29.0608 54.949C28.1131 54.1252 27.2725 53.288 26.4688 52.3704C26.2645 52.136 26.0636 51.8982 25.866 51.6604L25.6148 51.349C25.5448 51.2611 25.522 51.2323 25.5221 51.2322C25.5223 51.2321 25.5697 51.2912 25.5914 51.3188L25.4306 51.1079C24.9886 50.5218 24.1949 50.1568 23.505 50.6022C22.9257 50.9772 22.5238 51.9015 22.9993 52.5278L22.9993 52.5177ZM62.7607 18.7174C58.7622 19.4207 55.3563 22.5385 54.1273 26.3763C53.5178 28.2785 53.5546 30.7902 55.3496 32.056C57.5264 33.5865 60.1352 31.5604 61.3106 29.7151C62.1345 28.4191 62.1378 26.604 60.6074 25.8238C59.9409 25.4822 59.1506 25.4185 58.4273 25.2846C58.2162 25.2455 58.0035 25.2058 57.7898 25.1659C57.8488 25.076 57.9094 24.9871 57.9718 24.8995C58.0187 24.8325 58.0656 24.7689 58.1124 24.7052L58.1307 24.6795C58.1358 24.6737 58.142 24.6667 58.1493 24.6583C58.2665 24.5211 58.377 24.3804 58.4976 24.2464C58.7621 23.9483 59.0468 23.667 59.3448 23.3991C59.4643 23.2929 59.5838 23.1909 59.7066 23.0915C59.695 23.1021 59.8036 23.019 59.8483 22.9848L59.8539 22.9805C59.9677 22.9002 60.0816 22.8198 60.1988 22.7428C60.5303 22.5217 60.8786 22.3208 61.2336 22.1433C61.324 22.0998 61.4111 22.0563 61.5015 22.0127C61.5266 22.0002 61.5516 21.9884 61.577 21.977L61.6054 21.9658C61.8096 21.8888 62.0139 21.8084 62.2249 21.7414C62.6435 21.6075 63.0688 21.5037 63.5041 21.4266C64.2309 21.2994 64.7064 20.3717 64.4887 19.6953C64.2342 18.9116 63.5343 18.5734 62.7574 18.7107L62.7607 18.7174ZM18.1602 23.225C19.3122 22.88 20.1226 22.7193 21.2914 22.7629C21.4454 22.7695 21.5995 22.7796 21.7535 22.793C21.7974 22.7967 21.8314 22.7993 21.8573 22.801C21.8811 22.8061 21.9186 22.8133 21.9746 22.8231C22.199 22.8633 22.4267 22.8968 22.651 22.9336C23.1266 23.0107 23.5988 23.0944 24.071 23.1915C24.513 23.2853 24.9517 23.3924 25.3837 23.5331C25.5295 23.5799 25.6752 23.6329 25.8193 23.6871C25.8064 23.6829 25.8497 23.7011 25.9014 23.7227C25.9555 23.7454 26.0189 23.772 26.0368 23.7809C26.1406 23.8312 26.2444 23.8847 26.3482 23.9383C26.5559 24.0522 26.7467 24.1794 26.9443 24.31C26.9721 24.3285 27.0304 24.3766 27.0433 24.3872L27.0459 24.3894C27.1039 24.438 27.1621 24.4872 27.2189 24.5378C27.4189 24.7214 27.609 24.9188 27.7936 25.1215C26.8439 25.424 25.9382 25.8651 25.2297 26.5806C24.2183 27.602 23.6256 29.1726 24.1112 30.5758C24.5967 31.979 25.6885 32.8531 27.018 33.2683C28.4547 33.7171 30.0387 33.3989 31.4285 32.9301C32.1753 32.6789 32.9221 32.3842 33.3541 31.6809C33.7861 30.9777 33.7694 30.1505 33.5718 29.3937C33.2436 28.1244 32.5839 26.8786 31.8672 25.7902C31.1505 24.7019 30.2999 23.6369 29.369 22.7059C28.5049 21.8419 27.4366 21.2592 26.2913 20.864C25.0723 20.4421 23.7696 20.2512 22.5003 20.0637C20.779 19.8091 19.0677 20.0033 17.4033 20.499C16.6967 20.71 16.181 21.497 16.4188 22.2304C16.6565 22.9638 17.3966 23.4393 18.1502 23.2149L18.1602 23.225ZM28.7962 27.7561C29.0786 27.6737 29.3661 27.6069 29.652 27.5419C29.7481 27.6964 29.8415 27.8527 29.9315 28.0106C30.0722 28.255 30.2062 28.5062 30.3301 28.7607C30.3702 28.8444 30.4104 28.9315 30.4506 29.0152C30.4506 29.0152 30.6348 29.4439 30.5343 29.1994C30.6247 29.4171 30.7085 29.6415 30.7822 29.8658C30.8132 29.9646 30.8395 30.0633 30.869 30.1621C30.809 30.183 30.7487 30.2036 30.6884 30.2242C30.1492 30.405 29.5933 30.5791 29.0273 30.6562C29.2678 30.6232 28.789 30.6681 28.7891 30.6696L28.7896 30.6696C28.6623 30.6763 28.535 30.6763 28.4044 30.6696C28.3896 30.6696 28.3472 30.6669 28.3027 30.6641L28.3024 30.6641C28.2358 30.6598 28.1645 30.6553 28.1739 30.6591C28.078 30.6425 27.9811 30.6197 27.8887 30.5926C27.7916 30.5658 27.6978 30.5289 27.6007 30.4988C27.5961 30.4974 27.5918 30.4962 27.5879 30.4951C27.5769 30.4882 27.5645 30.4805 27.5505 30.472C27.4467 30.4083 27.3428 30.3514 27.239 30.2878C27.2216 30.2772 27.2066 30.2684 27.1941 30.2613C27.1827 30.2489 27.1678 30.2333 27.1486 30.2141C27.0886 30.1542 27.0287 30.0959 26.9712 30.0344C27.0305 30.0966 26.9437 29.9794 26.8887 29.9052C26.8756 29.8875 26.8643 29.8723 26.8572 29.8625C26.8436 29.8437 26.832 29.8289 26.8224 29.8173C26.8202 29.8053 26.8173 29.7914 26.8137 29.7754C26.7982 29.7268 26.7842 29.6767 26.7726 29.626C26.7713 29.606 26.7693 29.5799 26.7668 29.5477C26.771 29.4934 26.77 29.4404 26.7711 29.3871C26.7759 29.4235 26.8099 29.2882 26.8384 29.175C26.8456 29.1463 26.8525 29.119 26.8584 29.0964C26.8709 29.069 26.8853 29.0384 26.8941 29.0253C26.9005 29.0153 26.9186 28.9891 26.9416 28.9559L26.9418 28.9557C27.0272 28.8323 27.1793 28.6125 27.0448 28.7707C27.1151 28.687 27.1921 28.6067 27.2692 28.5296C27.316 28.4828 27.3629 28.4392 27.4132 28.3957C27.3587 28.4335 27.3316 28.4522 27.3315 28.4521C27.3314 28.4519 27.3711 28.424 27.45 28.3689C27.6656 28.2262 27.8867 28.0972 28.1208 27.9871C28.1249 27.9897 28.3877 27.8867 28.3877 27.8867C28.5216 27.8398 28.6589 27.7962 28.7962 27.7561ZM56.6456 27.813L56.6467 27.8081C57.2894 27.9288 57.932 28.049 58.5746 28.168C58.6885 28.1888 58.8016 28.2112 58.9144 28.2344C58.8677 28.3075 58.8165 28.3773 58.7722 28.4493C58.7673 28.4571 58.7633 28.464 58.7599 28.4699C58.7506 28.4795 58.7402 28.4905 58.7286 28.5028C58.6114 28.6268 58.4976 28.7574 58.377 28.8813C58.2163 29.0454 58.0488 29.1961 57.8814 29.3535C57.8732 29.3606 57.8507 29.379 57.8283 29.3973C57.8107 29.4116 57.7932 29.4259 57.7828 29.4346C57.6962 29.4966 57.6075 29.5543 57.5167 29.6078L57.5164 29.608C57.5097 29.6115 57.4064 29.6642 57.341 29.6996C57.2791 29.7196 57.1769 29.7561 57.1554 29.7639C57.108 29.728 57.053 29.7425 57.0671 29.7633C57.0646 29.7646 57.0622 29.766 57.0602 29.7673L57.0468 29.7627C57.0048 29.748 56.9616 29.7329 56.924 29.7273C56.9228 29.7266 56.9215 29.7259 56.9202 29.7252C56.9122 29.7207 56.905 29.7168 56.8985 29.7133C56.8737 29.689 56.8472 29.6622 56.8255 29.6393C56.8199 29.6282 56.8136 29.6155 56.8064 29.6013C56.8011 29.5915 56.7897 29.5748 56.7761 29.5548C56.7631 29.5358 56.7482 29.5138 56.7345 29.492C56.7311 29.4801 56.7272 29.4663 56.7227 29.4506C56.7026 29.3869 56.6791 29.3233 56.6624 29.2564C56.6529 29.2221 56.638 29.1335 56.624 29.0503L56.624 29.05C56.5995 28.9044 56.5779 28.7758 56.5931 28.9844C56.5805 28.8172 56.5688 28.65 56.5719 28.4828C56.5719 28.4582 56.5717 28.4324 56.5715 28.4058L56.5715 28.4056C56.5703 28.2768 56.569 28.1282 56.593 28.0039C56.6101 27.9459 56.6325 27.8668 56.6456 27.813ZM57.081 29.7745C57.074 29.7707 57.0695 29.7669 57.0671 29.7633C57.0883 29.7526 57.1256 29.7455 57.1549 29.7641L57.1513 29.7654C57.13 29.7724 57.1127 29.7772 57.0987 29.7803C57.0928 29.7784 57.0869 29.7765 57.081 29.7745ZM57.081 29.7745C57.0741 29.7722 57.0672 29.7698 57.0602 29.7673C57.0428 29.7789 57.0458 29.7915 57.0957 29.7809C57.0898 29.7788 57.0849 29.7767 57.081 29.7745ZM59.3838 28.3641C59.3858 28.3717 59.3633 28.3645 59.31 28.3195C59.3551 28.3339 59.3817 28.3565 59.3838 28.3641ZM56.6925 29.3903C56.6925 29.3903 56.7035 29.4238 56.716 29.461C56.6988 29.4306 56.6876 29.4038 56.6925 29.3903ZM56.7796 29.5845C56.7796 29.5845 56.7815 29.588 56.7848 29.5937C56.7811 29.5888 56.7792 29.5856 56.7796 29.5845ZM30.8963 30.3945C30.9014 30.3803 30.9063 30.367 30.9112 30.3544L30.9115 30.356C30.9069 30.3665 30.9018 30.3793 30.8963 30.3945ZM52.9049 60.1465C52.0342 59.5739 51.12 58.9242 50.4669 58.097C49.978 57.4775 49.901 56.7206 50.4669 56.1044C50.9425 55.5887 52.0007 55.525 52.4595 56.1044C52.7375 56.4594 53.0724 56.7709 53.4207 57.0588C53.4643 57.0948 53.5099 57.1327 53.5559 57.1695C53.6638 57.2479 53.7719 57.3334 53.8828 57.4105C54.1541 57.6047 54.4286 57.7855 54.7133 57.9597C55.2726 58.3013 55.8553 58.6127 56.4514 58.8907C56.6044 58.9623 56.7828 59.0181 56.931 59.1042C56.9397 59.1078 56.9483 59.1114 56.9571 59.1151C57.0374 59.1452 57.1178 59.1787 57.1982 59.2088C57.5398 59.3395 57.8847 59.4633 58.2364 59.5739C58.9999 59.815 59.7835 60.0059 60.5739 60.1365L60.9054 60.1867L60.9121 60.1867C61.1064 60.2068 61.2972 60.2269 61.4915 60.2436C61.9201 60.2771 62.3354 60.2905 62.7741 60.2872C63.2128 60.2838 63.6515 60.2604 64.0869 60.2135C64.1404 60.2074 64.205 60.2022 64.2516 60.199C64.3293 60.1888 64.4066 60.1725 64.482 60.1599C64.6897 60.1264 64.8973 60.0896 65.1016 60.0461C65.557 59.9523 66.0091 59.8317 66.4512 59.6877C66.6789 59.614 66.9033 59.5337 67.1277 59.4466C67.1599 59.4337 67.2953 59.3796 67.3478 59.3591C67.4105 59.3323 67.4993 59.2943 67.5228 59.2825C68.4772 58.8538 69.3815 58.3113 70.2221 57.6885C70.2304 57.6829 70.2712 57.6518 70.3079 57.6239C70.3448 57.5957 70.3775 57.5709 70.3683 57.5787C70.3841 57.5662 70.3969 57.5562 70.3995 57.5545C70.5033 57.4707 70.6072 57.387 70.7076 57.3033C70.9152 57.1292 71.1195 56.9517 71.3171 56.7675C71.7692 56.3489 72.2012 55.9035 72.6165 55.4447C73.1456 54.8586 74.0699 54.949 74.6091 55.4447C75.1885 55.9772 75.1013 56.8914 74.6091 57.4373C72.7672 59.4801 70.5469 61.1177 67.9816 62.1257C64.4854 63.5021 60.5002 63.3615 56.9872 62.1257C55.5606 61.6234 54.1708 60.9737 52.9049 60.1465ZM56.8655 59.0778C56.8151 59.0569 56.7595 59.0345 56.7593 59.0348C56.7593 59.035 56.7811 59.0441 56.8399 59.0682C56.8482 59.0712 56.8568 59.0744 56.8655 59.0778ZM60.8923 60.1866L60.8819 60.1851C60.8292 60.1775 60.7666 60.1684 60.7681 60.17C60.7847 60.1838 60.8537 60.1862 60.8923 60.1866Z" fill="rgb(255,255,255)" fill-rule="evenodd" />
</svg>
